# xmcd
#
# Track frame offsets: 
#        150
#        13151
#        38801
#        59153
#        74019
#        92781
#        105270
#        116134
#        121444
#        143233
#        157650
#        171940
#        189211
#        202803
#        223541
#        241167
#        258401
#        271828
#        284599
#        303937
#        319754
#
# Disc length: 4364 seconds
#
# Revision: 0
# Processed by: cddbd v1.5.2PL0 Copyright (c) Steve Scherf et al.
# Submitted via: ExactAudioCopy v0.99pb4
#
DISCID=30110a15
DTITLE=Евгений Коавкль - Избранные песни под гитару
DYEAR=1900
DGENRE=Chanson
TTITLE0=01 В Москву за песнями
TTITLE1=02 Шантрапа (Chantera pas)
TTITLE2=03 Песня про лохов
TTITLE3=04 Правильная песня про лохов
TTITLE4=05 Буква "Ж" (Апокалипсическое аллитерирование)
TTITLE5=06 Слушая песни М.Кочеткова
TTITLE6=07 В ожидании О.Митяева (Романс бывшего рокера)
TTITLE7=08 Пытаясь развлечь А.Городницкого
TTITLE8=09 Баллада о куклах и кукловодах
TTITLE9=10 Окуджавский мотив
TTITLE10=11 Унесённые в ретро
TTITLE11=12 Разговор с внутренними органами
TTITLE12=13 Белый асфальт
TTITLE13=14 О прямых, косых и правильных песнях
TTITLE14=15 Дежавю
TTITLE15=16 У церкви
TTITLE16=17 Детские стихи
TTITLE17=18 Беспризорная песня (Режиссёру Г.Полоке)
TTITLE18=19 Баллада о выдре (Кое-что о частной собственности на землю)
TTITLE19=20 Баллада о табуретке (Воспоминания о новогоднем утреннике)
TTITLE20=21 Стишок
EXTD=
EXTT0=
EXTT1=
EXTT2=
EXTT3=
EXTT4=
EXTT5=
EXTT6=
EXTT7=
EXTT8=
EXTT9=
EXTT10=
EXTT11=
EXTT12=
EXTT13=
EXTT14=
EXTT15=
EXTT16=
EXTT17=
EXTT18=
EXTT19=
EXTT20=
PLAYORDER=
